<svg width="42" height="41" viewBox="0 0 42 41" fill="none" xmlns="http://www.w3.org/2000/svg">
<path d="M27.424 0.216C27.7227 0.685332 27.9787 1.32533 28.192 2.136C28.448 2.904 28.576 3.71466 28.576 4.568C28.576 6.232 28.2133 7.42667 27.488 8.152C26.8053 8.83467 25.8667 9.176 24.672 9.176H11.232V16.408H25.248C25.5893 16.8773 25.8667 17.496 26.08 18.264C26.336 19.032 26.464 19.8427 26.464 20.696C26.464 22.3173 26.1013 23.4907 25.376 24.216C24.6933 24.8987 23.7547 25.24 22.56 25.24H11.36V38.744C10.8907 38.872 10.144 39 9.12 39.128C8.13867 39.256 7.15733 39.32 6.176 39.32C5.19467 39.32 4.32 39.2347 3.552 39.064C2.82667 38.936 2.208 38.68 1.696 38.296C1.184 37.912 0.8 37.3787 0.544 36.696C0.288 36.0133 0.16 35.1173 0.16 34.008V6.168C0.16 4.33333 0.693334 2.88266 1.76 1.816C2.82667 0.749332 4.27733 0.216 6.112 0.216H27.424ZM28.8455 33.816C28.8455 32.024 29.4002 30.5307 30.5095 29.336C31.6188 28.1413 33.1335 27.544 35.0535 27.544C36.9735 27.544 38.4882 28.1413 39.5975 29.336C40.7068 30.5307 41.2615 32.024 41.2615 33.816C41.2615 35.608 40.7068 37.1013 39.5975 38.296C38.4882 39.4907 36.9735 40.088 35.0535 40.088C33.1335 40.088 31.6188 39.4907 30.5095 38.296C29.4002 37.1013 28.8455 35.608 28.8455 33.816Z" fill="white"/>
</svg>
