<svg width="176" height="198" viewBox="0 0 176 198" fill="none" xmlns="http://www.w3.org/2000/svg">
<g id="men_illustration">
<g id="neck">
<path id="Vector" d="M126.667 112.453H126.747V137.269" stroke="#0C0B0B" stroke-width="2" stroke-miterlimit="10"/>
<path id="Vector_2" d="M106.914 136.952V113.087" stroke="#0C0B0B" stroke-width="2" stroke-miterlimit="10"/>
</g>
<g id="head">
<g id="crane">
<path id="Vector_3" d="M88.6686 56.7149V41.4127C88.6686 28.4098 100.806 17.7855 115.64 17.7855C123.018 17.7855 129.761 20.4019 134.679 24.6833C139.598 28.9648 142.612 34.832 142.612 41.3334V56.6356" stroke="#0C0B0B" stroke-width="2" stroke-miterlimit="10"/>
<path id="Vector_4" d="M142.612 73.2856V90.9664C142.612 103.969 130.475 114.594 115.64 114.594C100.806 114.594 88.6686 103.969 88.6686 90.9664V73.2856" stroke="#0C0B0B" stroke-width="2" stroke-miterlimit="10"/>
</g>
<g id="glasses">
<path id="Vector_5" d="M99.616 78.7564C107.196 78.7564 113.34 72.6153 113.34 65.0399C113.34 57.4645 107.196 51.3234 99.616 51.3234C92.0365 51.3234 85.8921 57.4645 85.8921 65.0399C85.8921 72.6153 92.0365 78.7564 99.616 78.7564Z" stroke="#0C0B0B" stroke-width="2" stroke-miterlimit="10"/>
<path id="Vector_6" d="M131.586 78.7564C139.165 78.7564 145.31 72.6153 145.31 65.0399C145.31 57.4645 139.165 51.3234 131.586 51.3234C124.006 51.3234 117.862 57.4645 117.862 65.0399C117.862 72.6153 124.006 78.7564 131.586 78.7564Z" stroke="#0C0B0B" stroke-width="2" stroke-miterlimit="10"/>
<path id="Vector_7" d="M113.261 64.6435H118.02" stroke="#0C0B0B" stroke-width="4" stroke-miterlimit="10"/>
</g>
<g id="eyes">
<path id="Vector_8" d="M99.616 68.2113C101.368 68.2113 102.789 66.7914 102.789 65.0399C102.789 63.2884 101.368 61.8685 99.616 61.8685C97.8635 61.8685 96.4428 63.2884 96.4428 65.0399C96.4428 66.7914 97.8635 68.2113 99.616 68.2113Z" fill="#0C0B0B"/>
<path id="Vector_9" d="M131.586 68.2113C133.338 68.2113 134.759 66.7914 134.759 65.0399C134.759 63.2884 133.338 61.8685 131.586 61.8685C129.833 61.8685 128.412 63.2884 128.412 65.0399C128.412 66.7914 129.833 68.2113 131.586 68.2113Z" fill="#0C0B0B"/>
</g>
<g id="ears">
<path id="Vector_10" d="M86.844 70.1935H85.2574C83.5122 70.1935 81.9256 70.9071 80.7357 72.0171C79.6251 73.2064 78.9111 74.7921 78.9111 76.5364C78.9111 80.025 81.7669 82.8793 85.2574 82.8793H88.4306" stroke="#0C0B0B" stroke-width="2" stroke-miterlimit="10"/>
<path id="Vector_11" d="M144.358 70.1935H145.944C149.435 70.1935 152.291 73.0478 152.291 76.5364C152.291 78.2807 151.577 79.8664 150.387 81.0557C149.276 82.1657 147.689 82.8793 145.944 82.8793H142.771" stroke="#0C0B0B" stroke-width="2" stroke-miterlimit="10"/>
<path id="Vector_12" d="M88.5099 74.6335V78.4393H85.9714C84.9401 78.4393 84.0675 77.5671 84.0675 76.5364C84.0675 75.9814 84.3055 75.5057 84.6228 75.1885C84.9401 74.8714 85.4161 74.6335 85.9714 74.6335H88.5099Z" fill="#0C0B0B"/>
<path id="Vector_13" d="M142.771 78.4393V74.6335H145.31C146.341 74.6335 147.213 75.5057 147.213 76.5364C147.213 77.0914 146.975 77.5671 146.658 77.8843C146.341 78.2014 145.865 78.4393 145.31 78.4393H142.771Z" fill="#0C0B0B"/>
</g>
<path id="nose" d="M115.64 78.1221C115.64 78.1221 111.674 84.465 118.02 82.8793" stroke="#0C0B0B" stroke-width="2" stroke-miterlimit="10" stroke-linecap="round"/>
<path id="mouth" d="M108.501 96.4372C108.501 96.4372 114.847 104.287 123.573 96.4372" stroke="#0C0B0B" stroke-width="2" stroke-miterlimit="10" stroke-linecap="round"/>
<g id="eyebrows">
<path id="Vector_14" d="M93.4283 48.7863C93.4283 48.7863 97.7914 44.4255 105.328 47.9934" stroke="#0C0B0B" stroke-width="3" stroke-miterlimit="10" stroke-linecap="round"/>
<path id="Vector_15" d="M137.853 48.7863C137.853 48.7863 133.49 44.4255 125.953 47.9934" stroke="#0C0B0B" stroke-width="3" stroke-miterlimit="10" stroke-linecap="round"/>
</g>
<g id="hair">
<path id="Vector_16" d="M88.3867 43.0401C88.3867 43.0401 77.4393 34.5565 82.199 24.2493C86.9588 13.9422 102.031 19.4922 102.031 19.4922C102.031 19.4922 108.06 45.1809 88.3867 43.0401Z" fill="#0C0B0B"/>
<path id="Vector_17" d="M144.515 43.0401C144.515 43.0401 155.463 34.5565 150.703 24.2493C145.943 13.9422 130.871 19.4922 130.871 19.4922C130.871 19.4922 124.842 45.1809 144.515 43.0401Z" fill="#0C0B0B"/>
<path id="Vector_18" d="M90.3128 26.9292C90.3128 26.9292 88.5706 13.1894 99.2246 9.26681C109.878 5.34418 116.612 19.9265 116.612 19.9265C116.612 19.9265 102.71 42.3543 90.3128 26.9292Z" fill="#0C0B0B"/>
<path id="Vector_19" d="M143.97 26.9292C143.97 26.9292 145.712 13.1894 135.058 9.26681C124.404 5.34418 117.671 19.9265 117.671 19.9265C117.671 19.9265 131.572 42.3543 143.97 26.9292Z" fill="#0C0B0B"/>
<path id="Vector_20" d="M101.384 17.7108C101.384 17.7108 104.144 4.13855 115.493 3.84227C126.842 3.54599 128.54 19.5179 128.54 19.5179C128.54 19.5179 108.176 36.2985 101.384 17.7108Z" fill="#0C0B0B"/>
</g>
</g>
<path id="Hand" d="M34.0902 103.098C33.1382 100.006 31.7896 98.4993 31.0756 93.98C29.5684 84.9414 30.1237 76.2992 26.3952 76.6163C24.888 76.7749 24.412 78.3606 24.4913 79.2328L25.6813 93.5043C25.2053 95.1693 24.3327 94.535 24.3327 94.535C24.3327 94.535 21.2388 81.8492 20.8422 79.5499C20.4455 77.3299 19.3349 76.0613 17.8277 76.2199C15.2098 76.4578 16.2411 79.6292 16.4791 80.8185L19.2556 96.2C19.4936 97.7064 17.907 97.2307 17.907 97.2307L11.7193 81.8492C11.0054 80.1842 9.65679 80.5806 9.65679 80.5806C7.19759 81.1356 8.14954 83.3556 8.14954 83.3556L13.4646 99.6886C13.4646 99.7678 13.4646 99.8471 13.4646 99.9264C13.5439 100.799 12.4333 101.274 11.9573 100.481C10.2914 97.9443 7.03893 93.9007 4.34174 92.315C2.99314 91.5221 2.04119 91.6807 1.48589 92.0771C0.930587 92.4735 0.851258 93.1871 1.2479 93.7421L11.164 108.093C13.4646 123.316 22.7461 125.139 22.7461 125.139L28.2991 146.864L36.47 181.115L37.5013 185.476C38.4533 189.678 42.261 192.691 46.5448 192.691H50.9079C54.0018 192.691 56.1436 189.678 55.1917 186.824L35.4387 126.725L34.5661 121.492C36.47 119.352 37.7393 114.832 38.3739 111.581C38.7706 109.837 38.9292 108.014 38.7706 106.269C38.4533 101.909 41.3884 94.0593 41.3884 94.0593C41.1504 92.5528 38.2946 93.8214 38.2946 93.8214C35.1214 94.9314 34.3281 100.006 34.0902 102.781C34.0108 103.97 33.4555 105.001 32.6622 105.794C27.9025 110.471 27.5058 115.704 27.5058 115.704" stroke="#0C0B0B" stroke-width="2" stroke-miterlimit="10"/>
<path id="body" d="M175.137 197.051V197.844H157.844L154.194 177.626V197.844H79.3077V186.348C79.3077 183.573 79.3077 180.798 79.3871 178.022C77.7212 179.37 75.8966 180.48 73.7547 181.67L57.1749 192.77C57.0956 192.849 57.0163 192.849 56.9369 192.928C56.223 193.325 55.4297 193.563 54.5571 193.563L51.1092 193.693C51.1092 193.693 54.795 192.294 55.6677 188.805L49.718 168.984C58.2062 161.927 71.9301 141.551 98.2674 137.349C99.378 137.111 100.568 136.873 101.837 136.714C103.027 136.556 104.217 136.397 105.566 136.318L106.438 136.239V136.397L105.962 136.477C106.121 136.477 106.2 136.477 106.359 136.397H106.438C106.597 136.397 106.756 136.397 106.914 136.318H106.994L107.787 136.239V139.252C107.787 139.648 107.946 140.124 108.342 140.52C109.532 141.868 112.229 142.899 115.482 143.137C116.037 143.216 116.592 143.216 117.148 143.216C117.227 143.216 117.306 143.216 117.306 143.216H117.386C120.559 143.137 123.494 142.265 125.001 140.996C125.477 140.6 125.953 140.045 125.953 139.252V136.477L126.747 136.635H126.905C127.143 136.635 127.302 136.714 127.54 136.714V136.477L128.571 136.635C157.685 140.203 175.137 162.8 175.137 197.051Z" fill="#0C0B0B"/>
</g>
</svg>
